<?xml version="1.0" encoding="utf-8"?>
<!-- Generator: Adobe Illustrator 27.7.0, SVG Export Plug-In . SVG Version: 6.00 Build 0)  -->
<svg version="1.1" xmlns="http://www.w3.org/2000/svg" xmlns:xlink="http://www.w3.org/1999/xlink" x="0px" y="0px"
	 viewBox="0 0 864 864" style="enable-background:new 0 0 864 864;" xml:space="preserve">
<style type="text/css">
	.st0{display:none;}
	.st1{display:inline;}
	.st2{fill:none;stroke:#FF0000;stroke-width:0.5;stroke-linecap:round;stroke-linejoin:round;}
	.st3{fill:none;stroke:#FF0000;stroke-miterlimit:10;}
	.st4{fill:none;stroke:#FF0000;stroke-linecap:round;stroke-linejoin:round;}
</style>
<g id="Sample_Flower" class="st0">
	<g class="st1">
		<path class="st2" d="M710.26,240.09c-2.44-1.67-4.92-3.29-7.41-4.78c-1.57-0.94-3.81-1.85-6.15-2.8
			c-0.51-1.23-1.05-2.46-1.65-3.69c-5.43-11.2-18.66-19.68-31.04-19.79c0.02-0.08,0.05-0.17,0.08-0.25c1.26-0.3,2.51-0.54,3.7-0.76
			c14.38-2.66,28.96-3.74,43.87-1.68c14.4,2,28.47,1.92,42.53,5.25c5.82,1.38,12.85,3.67,18.21,6.35c2.2,1.1,6.45,2.96,5.72,6.16
			c-0.31,1.36-5.25,4.35-6.49,5.13c-11.02,6.89-26.15,7.45-38.51,9.28C725.64,239.61,717.98,240.09,710.26,240.09z"/>
		<path class="st2" d="M619.66,185.48c-3.08-2.28-6.39-4.29-9.55-6.25c-3.84-2.39-7.63-4.79-11.44-7.12
			c-0.52-1.17-1.03-2.35-1.52-3.55c-5.47-13.47-12.58-25.61-16.72-39.46c-1.71-5.73-3.24-12.97-3.6-18.95
			c-0.15-2.45-0.66-7.07,2.48-8.03c1.34-0.41,6.39,2.37,7.68,3.05c11.48,6.1,19.52,18.92,27.29,28.71
			c4.69,5.92,8.93,12.32,12.79,19.01c-0.23,2.95-0.39,5.9-0.44,8.8c-0.03,1.83,0.31,4.22,0.65,6.73c-0.81,1.06-1.61,2.14-2.37,3.27
			C622.22,175.68,620.46,180.48,619.66,185.48z"/>
		<path class="st2" d="M625.1,258.66c-0.43,3.81-0.52,7.68-0.64,11.39c-0.15,4.52-0.34,9-0.45,13.47c-0.75,1.04-1.53,2.07-2.32,3.09
			c-8.93,11.47-15.89,23.7-25.81,34.21c-4.11,4.35-9.61,9.29-14.61,12.6c-2.05,1.35-5.79,4.11-8.2,1.87
			c-1.02-0.95-1.15-6.72-1.2-8.18c-0.46-12.99,6.62-26.37,11.22-37.99c4.05-10.23,9.46-20.14,15.6-29.61
			c3.91,0.45,7.73,1.2,11.83,1.5C615.33,261.34,620.36,260.47,625.1,258.66z"/>
		<path class="st2" d="M600.47,214.2c0.02-0.01,0.03-0.02,0.04-0.04c0.92,0.66,1.96,1.15,3.09,1.53
			c-5.65,3.46-10.42,8.2-13.49,14.65c-0.84,1.76-1.59,3.55-2.32,5.35c-4.12-0.12-8.27-0.45-12.45-1.03
			c-14.4-2-28.47-1.91-42.53-5.25c-5.82-1.38-12.85-3.67-18.21-6.35c-2.2-1.1-6.45-2.96-5.72-6.16c0.31-1.36,5.25-4.35,6.49-5.13
			c11.02-6.89,26.15-7.45,38.51-9.28c7.47-1.1,15.14-1.58,22.85-1.58c2.44,1.67,4.92,3.29,7.41,4.78
			C588.37,208.23,597.4,210.48,600.47,214.2z"/>
		<path class="st2" d="M659.57,260.92c-0.02-0.01-0.04-0.01-0.05-0.02c0.11-1.12,0.02-2.28-0.22-3.44
			c5.82,3.16,12.31,4.93,19.43,4.36c1.94-0.15,3.87-0.4,5.79-0.67c1.96,3.63,3.75,7.39,5.33,11.3
			c5.47,13.47,12.58,25.61,16.72,39.46c1.71,5.73,3.24,12.97,3.6,18.95c0.15,2.45,0.66,7.07-2.48,8.03
			c-1.34,0.41-6.39-2.37-7.68-3.05c-11.48-6.1-19.52-18.92-27.29-28.71c-4.69-5.92-8.93-12.32-12.79-19c0.23-2.95,0.39-5.9,0.43-8.8
			C660.44,274.38,657.88,265.43,659.57,260.92z"/>
		<circle class="st2" cx="643.5" cy="220.5" r="24.75"/>
		<path class="st2" d="M659.57,260.92c-0.02-0.01-0.04-0.01-0.05-0.02c0.11-1.12,0.02-2.28-0.22-3.44
			c-5.47-2.97-10.35-7.18-14.63-11.87c-0.48-0.53-0.98-1.05-1.47-1.58c-3.85,6.54-10.59,11.78-18.09,14.66
			c-0.43,3.81-0.52,7.67-0.64,11.39c-0.43,13.18-1.23,26.05,0.63,39.05c0.93,6.49,3.1,12.27,5.05,18.52
			c1.83,5.86,2.42,11.31,4.79,16.95c1.61,3.82,5.84,14.27,10.84,11.57c3.95-2.14,4.21-13.64,5.47-17.49
			c4.27-13.02,5.92-26.29,7.59-39.97c0.77-6.32,1.41-12.98,1.52-19.38C660.44,274.38,657.88,265.43,659.57,260.92z"/>
		<path class="st2" d="M600.47,214.2c0.02-0.01,0.03-0.02,0.04-0.04c0.92,0.66,1.96,1.15,3.09,1.53c5.31-3.25,11.4-5.38,17.59-6.74
			c0.7-0.15,1.4-0.32,2.11-0.48c-3.74-6.61-4.91-15.06-3.65-22.99c-3.08-2.28-6.39-4.29-9.55-6.25
			c-11.2-6.96-21.94-14.09-34.13-18.98c-6.09-2.44-12.18-3.45-18.56-4.88c-5.98-1.34-11.01-3.56-17.08-4.33
			c-4.11-0.52-15.28-2.08-15.44,3.6c-0.13,4.49,9.71,10.46,12.41,13.48c9.14,10.21,19.81,18.27,30.82,26.56
			c5.09,3.83,10.54,7.71,16.02,11C588.37,208.23,597.4,210.48,600.47,214.2z"/>
		<path class="st2" d="M670.48,186.44c0-0.02-0.01-0.04-0.01-0.06c4.76-0.8,11.22-7.49,15.53-9.88c5.59-3.11,11.68-5.88,17.54-8.37
			c12.69-5.39,24.99-10.6,38.41-13.41c3.96-0.83,14.05-6.36,17.88-4.01c4.84,2.98-2.09,11.87-4.6,15.17
			c-3.7,4.88-8.13,8.12-12.28,12.63c-4.43,4.81-8.35,9.58-13.51,13.64c-6.78,5.33-14.1,9.64-21.61,13.73
			c-13.58-1.41-26.89-0.29-40.04,2.14c-1.19,0.22-2.44,0.46-3.7,0.76c0.18-0.61,0.37-1.22,0.56-1.82
			c1.92-6.05,3.12-12.38,2.96-18.61C668.5,187.56,669.45,186.9,670.48,186.44z"/>
		<path class="st2" d="M663,157.48c-1.7,2.35-3.3,4.74-4.8,7.18c-4.57-5.85-9.41-11.41-11.47-18.79c-6.14-1.4-9.16,7.66-11.63,11.89
			c-2.28,3.9-5.1,7.14-7.8,10.66c-0.35-2.51-0.68-4.9-0.65-6.73c0.1-6.39,0.74-13.06,1.52-19.38c1.67-13.68,3.32-26.95,7.59-39.97
			c1.26-3.85,1.52-15.35,5.47-17.49c5-2.7,9.23,7.75,10.84,11.57c2.37,5.64,2.96,11.1,4.79,16.95c1.95,6.24,4.12,12.03,5.05,18.52
			C663.14,140.44,663.21,148.93,663,157.48z"/>
		<path class="st2" d="M598.7,259.5c-1.92,2.97-3.78,5.98-5.54,9.03c-3.22,1.54-6.49,2.99-9.7,4.35c-12.69,5.39-25,10.6-38.41,13.41
			c-3.96,0.83-14.05,6.36-17.88,4.01c-4.84-2.98,2.09-11.87,4.6-15.18c3.7-4.88,8.13-8.12,12.28-12.63
			c4.43-4.81,8.35-9.58,13.51-13.64c6.78-5.33,14.1-9.64,21.61-13.73c2.88,0.3,5.75,0.48,8.62,0.57
			c-2.78,6.88-5.18,13.85-10.54,19.32c1.85,6.02,11.21,4.11,16.11,4.13C595.19,259.16,596.95,259.3,598.7,259.5z"/>
		<path class="st2" d="M684.51,261.15c7.35-1.03,14.59-2.44,22-0.54c4.29-4.62-2.05-11.76-4.48-16.02
			c-2.24-3.92-3.63-7.99-5.33-12.09c2.35,0.96,4.58,1.86,6.15,2.8c5.48,3.29,10.93,7.17,16.02,11
			c11.01,8.29,21.68,16.35,30.82,26.56c2.7,3.02,12.54,8.99,12.41,13.48c-0.16,5.68-11.33,4.12-15.44,3.6
			c-6.07-0.76-11.09-2.98-17.08-4.32c-6.38-1.43-12.47-2.44-18.56-4.88c-8.01-3.21-15.4-7.39-22.7-11.85
			C687.15,266.24,685.87,263.67,684.51,261.15z"/>
		<path class="st2" d="M693.84,172.47c3.86-6.68,7.28-13.55,10.06-20.58c4.6-11.62,11.68-25,11.22-37.99
			c-0.05-1.46-0.17-7.23-1.2-8.18c-2.4-2.24-6.15,0.52-8.2,1.87c-5,3.3-10.5,8.24-14.61,12.6c-9.92,10.51-16.88,22.74-25.81,34.21
			c-2.59,3.33-4.95,6.75-7.12,10.27c1.19,1.53,2.37,3.08,3.47,4.68c4.05,5.89,5.77,12.38,5.94,19.01c0.89-0.79,1.84-1.45,2.87-1.91
			c0-0.02-0.01-0.04-0.01-0.06c4.76-0.8,11.22-7.49,15.53-9.88C688.54,175.09,691.17,173.75,693.84,172.47z"/>
	</g>
	<g class="st1">
		<path class="st2" d="M287.26,663.09c-2.44-1.67-4.92-3.29-7.41-4.78c-1.57-0.94-3.81-1.85-6.15-2.8
			c-0.51-1.23-1.05-2.46-1.65-3.69c-5.43-11.2-18.66-19.68-31.04-19.79c0.02-0.08,0.05-0.17,0.08-0.25c1.26-0.3,2.51-0.54,3.7-0.76
			c14.38-2.66,28.96-3.74,43.87-1.68c14.4,2,28.47,1.91,42.53,5.25c5.82,1.38,12.85,3.67,18.21,6.35c2.2,1.1,6.45,2.96,5.72,6.16
			c-0.31,1.36-5.25,4.35-6.49,5.13c-11.02,6.89-26.15,7.45-38.51,9.28C302.64,662.62,294.97,663.09,287.26,663.09z"/>
		<path class="st2" d="M196.65,608.48c-3.08-2.28-6.39-4.29-9.55-6.25c-3.84-2.39-7.63-4.79-11.44-7.12
			c-0.52-1.17-1.03-2.35-1.51-3.55c-5.47-13.47-12.58-25.61-16.72-39.46c-1.71-5.73-3.24-12.97-3.6-18.95
			c-0.15-2.45-0.66-7.07,2.48-8.03c1.34-0.41,6.39,2.37,7.68,3.05c11.48,6.1,19.52,18.92,27.29,28.71c4.69,5.92,8.93,12.32,12.79,19
			c-0.23,2.95-0.39,5.9-0.44,8.8c-0.03,1.83,0.31,4.22,0.65,6.73c-0.81,1.06-1.61,2.14-2.37,3.27
			C199.22,598.68,197.45,603.48,196.65,608.48z"/>
		<path class="st2" d="M202.09,681.66c-0.43,3.81-0.52,7.67-0.64,11.39c-0.15,4.52-0.34,9-0.45,13.47
			c-0.75,1.04-1.52,2.07-2.32,3.09c-8.93,11.47-15.89,23.7-25.81,34.21c-4.11,4.35-9.61,9.29-14.61,12.6
			c-2.05,1.35-5.79,4.11-8.2,1.87c-1.02-0.95-1.14-6.72-1.2-8.18c-0.46-12.99,6.62-26.37,11.22-37.99
			c4.05-10.23,9.46-20.14,15.6-29.61c3.91,0.45,7.73,1.2,11.83,1.5C192.32,684.34,197.36,683.47,202.09,681.66z"/>
		<path class="st2" d="M177.46,637.21c0.01-0.01,0.03-0.02,0.04-0.04c0.92,0.66,1.96,1.15,3.09,1.53
			c-5.65,3.46-10.42,8.2-13.49,14.65c-0.84,1.76-1.59,3.55-2.32,5.35c-4.12-0.12-8.27-0.45-12.45-1.03
			c-14.4-2-28.47-1.91-42.53-5.25c-5.82-1.38-12.85-3.67-18.21-6.35c-2.2-1.1-6.45-2.96-5.72-6.16c0.31-1.36,5.25-4.35,6.49-5.13
			c11.02-6.89,26.15-7.45,38.51-9.28c7.47-1.1,15.14-1.58,22.85-1.58c2.44,1.67,4.92,3.29,7.41,4.78
			C165.37,631.23,174.39,633.48,177.46,637.21z"/>
		<path class="st2" d="M236.56,683.92c-0.02-0.01-0.04-0.01-0.05-0.02c0.11-1.12,0.02-2.28-0.22-3.44
			c5.82,3.16,12.31,4.93,19.43,4.36c1.94-0.15,3.87-0.4,5.79-0.67c1.96,3.63,3.75,7.39,5.33,11.3
			c5.47,13.47,12.58,25.61,16.72,39.46c1.71,5.73,3.24,12.97,3.6,18.95c0.15,2.45,0.66,7.07-2.48,8.03
			c-1.34,0.41-6.39-2.37-7.68-3.05c-11.48-6.1-19.52-18.92-27.29-28.71c-4.69-5.92-8.93-12.32-12.79-19c0.23-2.95,0.39-5.9,0.43-8.8
			C237.43,697.38,234.87,688.44,236.56,683.92z"/>
		<circle class="st2" cx="220.5" cy="643.5" r="24.75"/>
		<path class="st2" d="M236.56,683.92c-0.02-0.01-0.04-0.01-0.05-0.02c0.11-1.12,0.02-2.28-0.22-3.44
			c-5.47-2.97-10.35-7.18-14.63-11.87c-0.48-0.53-0.98-1.05-1.47-1.58c-3.85,6.54-10.59,11.78-18.09,14.66
			c-0.43,3.81-0.52,7.67-0.64,11.39c-0.43,13.18-1.23,26.05,0.63,39.05c0.93,6.49,3.1,12.27,5.05,18.52
			c1.83,5.85,2.42,11.31,4.79,16.95c1.61,3.82,5.84,14.27,10.84,11.57c3.95-2.14,4.21-13.64,5.47-17.49
			c4.27-13.02,5.92-26.29,7.59-39.97c0.77-6.32,1.41-12.98,1.52-19.38C237.43,697.38,234.87,688.44,236.56,683.92z"/>
		<path class="st2" d="M177.46,637.21c0.01-0.01,0.03-0.02,0.04-0.04c0.92,0.66,1.96,1.15,3.09,1.53c5.31-3.25,11.4-5.38,17.59-6.74
			c0.7-0.15,1.4-0.32,2.11-0.48c-3.74-6.61-4.91-15.06-3.65-22.99c-3.08-2.28-6.39-4.29-9.55-6.25
			c-11.2-6.96-21.94-14.09-34.13-18.97c-6.09-2.44-12.18-3.45-18.56-4.88c-5.98-1.34-11.01-3.56-17.08-4.32
			c-4.11-0.52-15.28-2.08-15.44,3.6c-0.13,4.49,9.71,10.46,12.41,13.48c9.14,10.21,19.81,18.27,30.82,26.56
			c5.09,3.83,10.54,7.71,16.02,11C165.37,631.23,174.39,633.48,177.46,637.21z"/>
		<path class="st2" d="M247.47,609.44c0-0.02-0.01-0.04-0.01-0.06c4.76-0.8,11.22-7.49,15.53-9.88c5.59-3.1,11.68-5.88,17.54-8.37
			c12.69-5.39,24.99-10.6,38.41-13.41c3.96-0.83,14.05-6.36,17.88-4.01c4.84,2.98-2.09,11.87-4.6,15.17
			c-3.7,4.88-8.13,8.12-12.28,12.63c-4.43,4.81-8.35,9.58-13.51,13.64c-6.78,5.33-14.1,9.64-21.61,13.73
			c-13.58-1.41-26.89-0.29-40.04,2.14c-1.19,0.22-2.44,0.46-3.7,0.76c0.18-0.61,0.37-1.22,0.56-1.82
			c1.92-6.05,3.12-12.38,2.96-18.61C245.49,610.56,246.45,609.9,247.47,609.44z"/>
		<path class="st2" d="M239.99,580.48c-1.7,2.35-3.3,4.74-4.8,7.18c-4.57-5.85-9.41-11.41-11.47-18.79
			c-6.14-1.4-9.16,7.66-11.63,11.89c-2.28,3.9-5.1,7.14-7.8,10.66c-0.35-2.51-0.68-4.9-0.65-6.73c0.1-6.39,0.74-13.06,1.52-19.38
			c1.67-13.68,3.32-26.95,7.59-39.97c1.26-3.85,1.52-15.35,5.47-17.49c5-2.7,9.23,7.75,10.84,11.57c2.37,5.64,2.96,11.1,4.79,16.95
			c1.95,6.24,4.12,12.03,5.05,18.52C240.13,563.44,240.21,571.93,239.99,580.48z"/>
		<path class="st2" d="M175.69,682.5c-1.92,2.97-3.78,5.98-5.54,9.03c-3.22,1.54-6.49,2.99-9.7,4.35
			c-12.69,5.39-25,10.6-38.41,13.41c-3.96,0.83-14.05,6.36-17.88,4.01c-4.84-2.98,2.09-11.87,4.6-15.17
			c3.7-4.87,8.13-8.12,12.28-12.63c4.43-4.81,8.35-9.58,13.51-13.64c6.78-5.33,14.1-9.64,21.61-13.73c2.88,0.3,5.75,0.48,8.62,0.57
			c-2.78,6.88-5.18,13.85-10.54,19.32c1.85,6.02,11.21,4.1,16.11,4.13C172.18,682.16,173.95,682.3,175.69,682.5z"/>
		<path class="st2" d="M261.51,684.15c7.35-1.03,14.59-2.44,22-0.54c4.29-4.62-2.05-11.76-4.48-16.02
			c-2.24-3.92-3.63-7.98-5.33-12.08c2.35,0.96,4.58,1.86,6.15,2.8c5.48,3.29,10.93,7.17,16.02,11
			c11.01,8.29,21.68,16.35,30.82,26.56c2.7,3.02,12.54,8.99,12.41,13.48c-0.16,5.68-11.33,4.12-15.44,3.6
			c-6.07-0.76-11.09-2.98-17.08-4.33c-6.38-1.43-12.47-2.44-18.56-4.88c-8.01-3.21-15.4-7.39-22.7-11.85
			C264.14,689.25,262.87,686.67,261.51,684.15z"/>
		<path class="st2" d="M270.84,595.48c3.86-6.68,7.28-13.55,10.06-20.58c4.6-11.62,11.68-25,11.22-37.99
			c-0.05-1.46-0.17-7.23-1.2-8.18c-2.4-2.24-6.15,0.52-8.2,1.87c-5,3.3-10.5,8.24-14.61,12.6c-9.92,10.51-16.88,22.73-25.81,34.21
			c-2.59,3.33-4.95,6.75-7.12,10.27c1.19,1.53,2.37,3.08,3.47,4.68c4.05,5.89,5.77,12.38,5.94,19.01c0.89-0.79,1.84-1.45,2.87-1.91
			c0-0.02-0.01-0.04-0.01-0.06c4.76-0.8,11.22-7.49,15.53-9.88C265.53,598.09,268.17,596.75,270.84,595.48z"/>
	</g>
	<g class="st1">
		<path class="st2" d="M710.27,663.09c-2.44-1.67-4.92-3.29-7.41-4.78c-1.57-0.94-3.81-1.85-6.15-2.8
			c-0.51-1.23-1.05-2.46-1.65-3.69c-5.43-11.2-18.66-19.68-31.04-19.79c0.03-0.08,0.05-0.17,0.08-0.25c1.26-0.3,2.51-0.54,3.7-0.76
			c14.38-2.66,28.96-3.74,43.87-1.68c14.4,2,28.47,1.91,42.53,5.25c5.82,1.38,12.85,3.67,18.21,6.35c2.2,1.1,6.45,2.97,5.72,6.16
			c-0.31,1.36-5.25,4.35-6.49,5.13c-11.02,6.89-26.15,7.45-38.51,9.28C725.65,662.61,717.98,663.09,710.27,663.09z"/>
		<path class="st2" d="M619.66,608.48c-3.08-2.28-6.39-4.29-9.55-6.25c-3.84-2.39-7.63-4.79-11.44-7.12
			c-0.52-1.17-1.03-2.35-1.51-3.55c-5.47-13.47-12.58-25.61-16.72-39.46c-1.71-5.74-3.24-12.97-3.6-18.95
			c-0.15-2.45-0.66-7.07,2.48-8.03c1.34-0.41,6.39,2.37,7.68,3.05c11.48,6.1,19.52,18.92,27.29,28.71
			c4.69,5.92,8.93,12.32,12.79,19.01c-0.23,2.95-0.39,5.9-0.44,8.8c-0.03,1.83,0.31,4.22,0.65,6.73c-0.81,1.06-1.61,2.14-2.37,3.27
			C622.22,598.68,620.46,603.48,619.66,608.48z"/>
		<path class="st2" d="M625.1,681.66c-0.43,3.81-0.52,7.67-0.64,11.39c-0.15,4.52-0.34,9-0.45,13.47c-0.75,1.04-1.53,2.07-2.32,3.09
			c-8.93,11.47-15.89,23.7-25.81,34.21c-4.11,4.35-9.61,9.3-14.61,12.6c-2.05,1.35-5.79,4.11-8.2,1.87
			c-1.02-0.95-1.14-6.72-1.2-8.18c-0.46-12.99,6.62-26.37,11.22-37.99c4.05-10.23,9.46-20.14,15.6-29.61
			c3.91,0.45,7.73,1.2,11.83,1.5C615.33,684.34,620.37,683.47,625.1,681.66z"/>
		<path class="st2" d="M600.47,637.2c0.02-0.01,0.03-0.02,0.04-0.04c0.92,0.66,1.96,1.16,3.09,1.53
			c-5.65,3.46-10.42,8.2-13.49,14.65c-0.84,1.76-1.59,3.55-2.32,5.35c-4.12-0.12-8.27-0.45-12.45-1.03
			c-14.4-2-28.47-1.91-42.53-5.25c-5.82-1.38-12.85-3.67-18.21-6.35c-2.2-1.1-6.45-2.97-5.72-6.16c0.32-1.36,5.25-4.35,6.49-5.13
			c11.02-6.89,26.15-7.45,38.51-9.28c7.47-1.1,15.14-1.58,22.85-1.58c2.44,1.67,4.92,3.29,7.41,4.78
			C588.37,631.23,597.4,633.48,600.47,637.2z"/>
		<path class="st2" d="M659.57,683.92c-0.02-0.01-0.04-0.01-0.05-0.02c0.11-1.12,0.02-2.28-0.22-3.44
			c5.82,3.16,12.31,4.93,19.43,4.36c1.94-0.15,3.87-0.4,5.79-0.67c1.96,3.63,3.75,7.39,5.33,11.3
			c5.47,13.47,12.58,25.61,16.72,39.46c1.71,5.73,3.24,12.97,3.6,18.95c0.15,2.45,0.66,7.07-2.48,8.03
			c-1.34,0.41-6.39-2.37-7.68-3.05c-11.48-6.1-19.52-18.92-27.29-28.71c-4.69-5.92-8.93-12.32-12.79-19c0.23-2.95,0.39-5.9,0.43-8.8
			C660.44,697.38,657.88,688.43,659.57,683.92z"/>
		
			<ellipse transform="matrix(1 -8.870061e-03 8.870061e-03 1 -5.6826 5.7332)" class="st2" cx="643.5" cy="643.5" rx="24.75" ry="24.75"/>
		<path class="st2" d="M659.57,683.92c-0.02-0.01-0.04-0.01-0.05-0.02c0.11-1.12,0.02-2.28-0.22-3.44
			c-5.47-2.97-10.35-7.18-14.63-11.87c-0.48-0.53-0.98-1.05-1.47-1.58c-3.85,6.54-10.59,11.78-18.09,14.66
			c-0.43,3.81-0.52,7.67-0.64,11.39c-0.43,13.18-1.23,26.05,0.63,39.05c0.93,6.49,3.1,12.27,5.05,18.52
			c1.83,5.85,2.42,11.31,4.79,16.95c1.61,3.82,5.84,14.27,10.84,11.57c3.95-2.14,4.21-13.64,5.47-17.49
			c4.27-13.03,5.92-26.29,7.59-39.97c0.77-6.32,1.41-12.98,1.52-19.38C660.44,697.38,657.88,688.43,659.57,683.92z"/>
		<path class="st2" d="M600.47,637.2c0.02-0.01,0.03-0.02,0.04-0.04c0.92,0.66,1.96,1.16,3.09,1.53c5.31-3.25,11.4-5.38,17.59-6.74
			c0.7-0.15,1.4-0.32,2.11-0.48c-3.74-6.61-4.91-15.06-3.65-22.99c-3.08-2.28-6.39-4.29-9.55-6.25
			c-11.2-6.96-21.94-14.09-34.13-18.98c-6.09-2.44-12.18-3.45-18.56-4.88c-5.98-1.34-11.01-3.56-17.08-4.33
			c-4.11-0.52-15.28-2.08-15.44,3.6c-0.13,4.49,9.71,10.46,12.41,13.48c9.14,10.21,19.81,18.27,30.82,26.56
			c5.09,3.83,10.54,7.71,16.02,11C588.37,631.23,597.4,633.48,600.47,637.2z"/>
		<path class="st2" d="M670.48,609.44c0-0.02-0.01-0.04-0.01-0.06c4.76-0.8,11.22-7.49,15.53-9.88c5.59-3.11,11.68-5.88,17.54-8.37
			c12.69-5.39,24.99-10.6,38.41-13.41c3.96-0.83,14.05-6.36,17.88-4.01c4.84,2.98-2.09,11.87-4.6,15.17
			c-3.7,4.88-8.13,8.12-12.28,12.63c-4.43,4.81-8.35,9.58-13.51,13.64c-6.78,5.33-14.1,9.64-21.61,13.73
			c-13.58-1.41-26.89-0.29-40.04,2.14c-1.19,0.22-2.44,0.46-3.7,0.76c0.18-0.61,0.37-1.22,0.56-1.82
			c1.92-6.05,3.12-12.38,2.96-18.61C668.5,610.56,669.45,609.9,670.48,609.44z"/>
		<path class="st2" d="M663,580.48c-1.7,2.35-3.3,4.74-4.8,7.18c-4.57-5.85-9.41-11.41-11.47-18.79c-6.14-1.4-9.16,7.66-11.63,11.89
			c-2.28,3.9-5.1,7.14-7.8,10.66c-0.35-2.51-0.68-4.9-0.65-6.73c0.1-6.39,0.74-13.06,1.52-19.38c1.67-13.68,3.32-26.95,7.59-39.97
			c1.26-3.85,1.52-15.35,5.47-17.49c5-2.7,9.23,7.75,10.84,11.57c2.37,5.64,2.96,11.1,4.79,16.95c1.95,6.24,4.12,12.03,5.05,18.52
			C663.14,563.44,663.21,571.93,663,580.48z"/>
		<path class="st2" d="M598.7,682.5c-1.92,2.97-3.78,5.98-5.54,9.03c-3.22,1.54-6.49,2.99-9.7,4.35c-12.69,5.39-25,10.6-38.41,13.41
			c-3.96,0.83-14.05,6.36-17.88,4.01c-4.84-2.98,2.09-11.87,4.6-15.17c3.7-4.88,8.13-8.12,12.28-12.63
			c4.43-4.81,8.35-9.58,13.51-13.64c6.78-5.33,14.1-9.64,21.61-13.73c2.88,0.3,5.75,0.48,8.62,0.57
			c-2.78,6.88-5.18,13.86-10.54,19.33c1.85,6.02,11.21,4.11,16.11,4.13C595.19,682.16,596.95,682.3,598.7,682.5z"/>
		<path class="st2" d="M684.51,684.15c7.35-1.03,14.59-2.44,22-0.53c4.29-4.62-2.05-11.77-4.48-16.02
			c-2.24-3.92-3.63-7.98-5.33-12.09c2.35,0.96,4.58,1.86,6.15,2.8c5.48,3.29,10.93,7.17,16.02,11
			c11.01,8.29,21.68,16.35,30.82,26.56c2.7,3.02,12.54,8.99,12.41,13.48c-0.16,5.68-11.33,4.12-15.44,3.6
			c-6.07-0.76-11.09-2.98-17.08-4.33c-6.38-1.43-12.47-2.44-18.56-4.88c-8.01-3.21-15.4-7.39-22.7-11.85
			C687.15,689.24,685.87,686.67,684.51,684.15z"/>
		<path class="st2" d="M693.85,595.47c3.86-6.68,7.28-13.55,10.06-20.58c4.6-11.62,11.68-25,11.22-37.99
			c-0.05-1.46-0.17-7.23-1.2-8.18c-2.4-2.24-6.15,0.52-8.2,1.87c-5,3.3-10.5,8.24-14.61,12.6c-9.92,10.51-16.88,22.73-25.81,34.21
			c-2.59,3.33-4.95,6.75-7.12,10.27c1.19,1.53,2.37,3.08,3.47,4.68c4.05,5.89,5.77,12.39,5.94,19.01c0.89-0.79,1.84-1.45,2.87-1.91
			c0-0.02-0.01-0.04-0.01-0.06c4.76-0.8,11.22-7.49,15.53-9.88C688.54,598.09,691.17,596.75,693.85,595.47z"/>
	</g>
	<g class="st1">
		<path class="st2" d="M287.26,240.09c-2.44-1.67-4.92-3.29-7.41-4.78c-1.57-0.94-3.81-1.85-6.15-2.8
			c-0.51-1.23-1.05-2.46-1.65-3.69c-5.43-11.2-18.66-19.68-31.04-19.79c0.02-0.08,0.05-0.17,0.08-0.25c1.26-0.3,2.51-0.54,3.7-0.76
			c14.38-2.66,28.96-3.74,43.87-1.68c14.4,2,28.47,1.92,42.53,5.25c5.82,1.38,12.85,3.67,18.21,6.35c2.2,1.1,6.45,2.96,5.72,6.16
			c-0.31,1.36-5.25,4.35-6.49,5.13c-11.02,6.89-26.15,7.45-38.51,9.28C302.64,239.61,294.98,240.09,287.26,240.09z"/>
		<path class="st2" d="M196.66,185.48c-3.08-2.28-6.39-4.29-9.55-6.25c-3.84-2.39-7.63-4.79-11.44-7.12
			c-0.52-1.17-1.03-2.35-1.51-3.55c-5.47-13.47-12.58-25.61-16.72-39.46c-1.71-5.73-3.24-12.97-3.6-18.95
			c-0.15-2.45-0.66-7.07,2.48-8.03c1.34-0.41,6.39,2.37,7.68,3.05c11.48,6.1,19.52,18.92,27.29,28.71
			c4.69,5.92,8.93,12.32,12.79,19.01c-0.23,2.95-0.39,5.9-0.44,8.8c-0.03,1.83,0.31,4.22,0.65,6.73c-0.81,1.06-1.61,2.14-2.37,3.27
			C199.22,175.68,197.45,180.48,196.66,185.48z"/>
		<path class="st2" d="M202.09,258.66c-0.43,3.81-0.52,7.68-0.64,11.39c-0.15,4.52-0.34,9-0.45,13.47
			c-0.75,1.04-1.52,2.07-2.32,3.09c-8.93,11.47-15.89,23.7-25.81,34.21c-4.11,4.35-9.61,9.29-14.61,12.6
			c-2.05,1.35-5.79,4.11-8.2,1.87c-1.02-0.95-1.14-6.72-1.2-8.18c-0.46-12.99,6.62-26.37,11.22-37.99
			c4.05-10.23,9.46-20.14,15.6-29.61c3.91,0.45,7.73,1.2,11.83,1.5C192.33,261.34,197.36,260.47,202.09,258.66z"/>
		<path class="st2" d="M177.46,214.2c0.01-0.01,0.03-0.02,0.04-0.04c0.92,0.66,1.96,1.15,3.09,1.53
			c-5.65,3.46-10.42,8.2-13.49,14.65c-0.84,1.76-1.59,3.55-2.32,5.35c-4.12-0.12-8.27-0.45-12.45-1.03
			c-14.4-2-28.47-1.91-42.53-5.25c-5.82-1.38-12.85-3.67-18.21-6.35c-2.2-1.1-6.45-2.96-5.72-6.16c0.32-1.36,5.25-4.35,6.49-5.13
			c11.02-6.89,26.15-7.45,38.51-9.28c7.47-1.1,15.14-1.58,22.85-1.58c2.44,1.67,4.92,3.29,7.41,4.78
			C165.37,208.23,174.4,210.48,177.46,214.2z"/>
		<path class="st2" d="M236.56,260.92c-0.02-0.01-0.04-0.01-0.05-0.02c0.11-1.12,0.02-2.28-0.22-3.44
			c5.82,3.16,12.31,4.93,19.43,4.36c1.94-0.15,3.87-0.4,5.79-0.67c1.96,3.63,3.75,7.39,5.33,11.3
			c5.47,13.47,12.58,25.61,16.72,39.46c1.71,5.73,3.24,12.97,3.6,18.95c0.15,2.45,0.66,7.07-2.48,8.03
			c-1.34,0.41-6.39-2.37-7.68-3.05c-11.48-6.1-19.52-18.92-27.29-28.71c-4.69-5.92-8.93-12.32-12.79-19c0.23-2.95,0.39-5.9,0.43-8.8
			C237.43,274.38,234.87,265.43,236.56,260.92z"/>
		<circle class="st2" cx="220.5" cy="220.5" r="24.75"/>
		<path class="st2" d="M236.56,260.92c-0.02-0.01-0.04-0.01-0.05-0.02c0.11-1.12,0.02-2.28-0.22-3.44
			c-5.47-2.97-10.35-7.18-14.63-11.87c-0.48-0.53-0.98-1.05-1.47-1.58c-3.85,6.54-10.59,11.78-18.09,14.66
			c-0.43,3.81-0.52,7.67-0.64,11.39c-0.43,13.18-1.23,26.05,0.63,39.05c0.93,6.49,3.1,12.27,5.05,18.52
			c1.83,5.86,2.42,11.31,4.79,16.95c1.61,3.82,5.84,14.27,10.84,11.57c3.95-2.14,4.21-13.64,5.47-17.49
			c4.27-13.02,5.92-26.29,7.59-39.97c0.77-6.32,1.41-12.98,1.52-19.38C237.43,274.38,234.87,265.43,236.56,260.92z"/>
		<path class="st2" d="M177.46,214.2c0.01-0.01,0.03-0.02,0.04-0.04c0.92,0.66,1.96,1.15,3.09,1.53c5.31-3.25,11.4-5.38,17.59-6.74
			c0.7-0.15,1.4-0.32,2.11-0.48c-3.74-6.61-4.91-15.06-3.65-22.99c-3.08-2.28-6.39-4.29-9.55-6.25
			c-11.2-6.96-21.94-14.09-34.13-18.98c-6.09-2.44-12.18-3.45-18.56-4.88c-5.98-1.34-11.01-3.56-17.08-4.33
			c-4.11-0.52-15.28-2.08-15.44,3.6c-0.13,4.49,9.71,10.46,12.41,13.48c9.14,10.21,19.81,18.27,30.82,26.56
			c5.09,3.83,10.54,7.71,16.02,11C165.37,208.23,174.4,210.48,177.46,214.2z"/>
		<path class="st2" d="M247.48,186.44c0-0.02-0.01-0.04-0.01-0.06c4.76-0.8,11.22-7.49,15.53-9.88c5.59-3.11,11.68-5.88,17.54-8.37
			c12.69-5.39,24.99-10.6,38.41-13.41c3.96-0.83,14.05-6.36,17.88-4.01c4.84,2.98-2.09,11.87-4.6,15.17
			c-3.7,4.88-8.13,8.12-12.28,12.63c-4.43,4.81-8.35,9.58-13.51,13.64c-6.78,5.33-14.1,9.64-21.61,13.73
			c-13.58-1.41-26.89-0.29-40.04,2.14c-1.19,0.22-2.44,0.46-3.7,0.76c0.18-0.61,0.37-1.22,0.56-1.82
			c1.92-6.05,3.12-12.38,2.96-18.61C245.49,187.56,246.45,186.9,247.48,186.44z"/>
		<path class="st2" d="M239.99,157.48c-1.7,2.35-3.3,4.74-4.8,7.18c-4.57-5.85-9.41-11.41-11.47-18.79
			c-6.14-1.4-9.16,7.66-11.63,11.89c-2.28,3.9-5.1,7.14-7.8,10.66c-0.35-2.51-0.68-4.9-0.65-6.73c0.1-6.39,0.74-13.06,1.52-19.38
			c1.67-13.68,3.32-26.95,7.59-39.97c1.26-3.85,1.52-15.35,5.47-17.49c5-2.7,9.23,7.75,10.84,11.57c2.37,5.64,2.96,11.1,4.79,16.95
			c1.95,6.24,4.12,12.03,5.05,18.52C240.14,140.44,240.21,148.93,239.99,157.48z"/>
		<path class="st2" d="M175.7,259.5c-1.92,2.97-3.78,5.98-5.54,9.03c-3.22,1.54-6.49,2.99-9.7,4.35c-12.69,5.39-25,10.6-38.41,13.41
			c-3.96,0.83-14.05,6.36-17.88,4.01c-4.84-2.98,2.09-11.87,4.6-15.18c3.7-4.88,8.13-8.12,12.28-12.63
			c4.43-4.81,8.35-9.58,13.51-13.64c6.78-5.33,14.1-9.64,21.61-13.73c2.88,0.3,5.75,0.48,8.62,0.57
			c-2.78,6.88-5.18,13.85-10.54,19.32c1.85,6.02,11.21,4.11,16.11,4.13C172.18,259.16,173.95,259.3,175.7,259.5z"/>
		<path class="st2" d="M261.51,261.15c7.35-1.03,14.59-2.44,22-0.54c4.29-4.62-2.05-11.76-4.48-16.02
			c-2.24-3.92-3.63-7.99-5.33-12.09c2.35,0.96,4.58,1.86,6.15,2.8c5.48,3.29,10.93,7.17,16.02,11
			c11.01,8.29,21.68,16.35,30.82,26.56c2.7,3.02,12.54,8.99,12.41,13.48c-0.16,5.68-11.33,4.12-15.44,3.6
			c-6.07-0.76-11.09-2.98-17.08-4.32c-6.38-1.43-12.47-2.44-18.56-4.88c-8.01-3.21-15.4-7.39-22.7-11.85
			C264.14,266.24,262.87,263.67,261.51,261.15z"/>
		<path class="st2" d="M270.84,172.47c3.86-6.68,7.28-13.55,10.06-20.58c4.6-11.62,11.68-25,11.22-37.99
			c-0.05-1.46-0.17-7.23-1.2-8.18c-2.4-2.24-6.15,0.52-8.2,1.87c-5,3.3-10.5,8.24-14.61,12.6c-9.92,10.51-16.88,22.74-25.81,34.21
			c-2.59,3.33-4.95,6.75-7.12,10.27c1.19,1.53,2.37,3.08,3.47,4.68c4.05,5.89,5.77,12.38,5.94,19.01c0.89-0.79,1.84-1.45,2.87-1.91
			c0-0.02-0.01-0.04-0.01-0.06c4.76-0.8,11.22-7.49,15.53-9.88C265.53,175.09,268.17,173.75,270.84,172.47z"/>
	</g>
</g>
<g id="Layer_3">
</g>
<g id="Template">
	<g>
		<polygon class="st3" points="359.78,283.52 359.78,306.22 356.51,306.22 356.51,309.15 353.41,309.15 353.41,312.41 
			350.01,312.41 350.01,315.74 343.52,315.74 343.52,364.85 324.71,364.85 324.71,334.89 317.64,334.89 317.64,332.02 
			314.49,332.02 314.49,328.69 311.8,328.69 311.8,325.48 308.23,325.48 308.23,292.81 311.81,292.81 311.81,290.11 314.5,290.11 
			314.5,292.81 318.09,292.81 318.09,325.48 324.71,325.48 324.71,270.68 327.46,270.68 327.46,267.01 340.61,267.01 340.61,270.68 
			343.52,270.68 343.52,306.22 350.26,306.22 350.26,283.52 353.47,283.52 353.47,280.43 356.57,280.43 356.57,283.52 		"/>
		<rect x="22.5" y="22.5" class="st4" width="396" height="396"/>
		<polygon class="st3" points="95.26,258.15 95.26,306.91 92.26,306.91 92.26,309.97 89.15,309.97 89.15,313.45 85.82,313.45 
			85.82,316.85 79.42,316.85 79.42,345.67 59.55,345.67 59.55,316.85 53.15,316.85 53.15,313.45 50.32,313.45 50.32,309.97 
			47.11,309.97 47.11,306.91 43.99,306.91 43.99,261.97 47.05,261.97 47.05,258.76 50.26,258.76 50.26,261.97 53.32,261.97 
			53.32,306.91 59.55,306.91 59.55,251.73 63.22,251.73 63.22,248.85 75.75,248.85 75.75,251.73 79.42,251.73 79.42,306.91 
			85.93,306.91 85.93,258.15 89.15,258.15 89.15,255.24 92.05,255.24 92.05,258.15 		"/>
		<polyline class="st3" points="59.55,345.67 28.44,345.67 28.44,341.35 59.55,341.35 		"/>
		<path class="st3" d="M59.55,345.67"/>
		<polyline class="st3" points="79.43,345.67 160.08,345.67 160.08,341.35 79.43,341.35 		"/>
		<path class="st3" d="M79.43,345.67"/>
		<path class="st3" d="M79.43,341.35"/>
		<rect x="137.91" y="351.38" class="st3" width="15.75" height="4.32"/>
		<rect x="124.69" y="367.29" class="st3" width="6.42" height="4.32"/>
		<rect x="66.68" y="370.56" class="st3" width="13.2" height="4.32"/>
		<rect x="47.87" y="357.83" class="st3" width="9.06" height="4.32"/>
		<rect x="247.13" y="367.52" class="st3" width="6.19" height="4.32"/>
		<rect x="269.72" y="354.2" class="st3" width="6.19" height="4.32"/>
		<rect x="356.85" y="367.48" class="st3" width="15.71" height="4.32"/>
		<rect x="401.8" y="351.3" class="st3" width="6.42" height="4.32"/>
		<polyline class="st3" points="343.52,341.44 412.11,341.44 412.11,345.76 343.52,345.76 		"/>
		<polyline class="st3" points="324.69,345.76 224.78,345.76 224.78,341.44 324.69,341.44 		"/>
		<rect x="224.55" y="227.8" class="st3" width="6.46" height="6.46"/>
		<polyline class="st3" points="205.17,344.75 198.9,344.75 198.9,338.63 192.03,338.63 192.03,344.86 185.83,344.86 185.83,352.27 
			179.45,352.27 179.45,358.27 185.83,358.27 185.83,364.85 173.07,364.85 173.07,338.63 166.56,338.63 166.56,332.13 160.4,332.13 
			160.4,325.71 154.15,325.71 154.15,319.06 147.9,319.06 147.9,312.41 141.08,312.41 141.08,305.76 134.78,305.76 134.78,267.01 
			141.08,267.01 141.08,279.97 147.22,279.97 147.22,286.68 153.64,286.68 153.64,293.32 179.49,293.32 179.49,286.68 
			186.22,286.68 186.22,280.31 195.92,280.31 195.92,273.66 205.78,273.66 205.78,267.01 212.05,267.01 212.05,224.52 
			218.39,224.52 218.39,217.94 269.53,217.94 269.53,224.52 275.95,224.52 275.95,254.02 243.85,254.02 243.85,259.98 
			263.26,259.98 263.26,267.01 231.01,267.01 231.01,279.97 243.85,279.97 243.85,293.32 237.43,293.32 237.43,286.68 
			231.01,286.68 231.01,312.41 224.78,312.41 224.78,319.06 218.01,319.06 218.01,325.71 211.59,325.71 211.59,358.27 
			218.01,358.27 218.01,364.85 205.17,364.85 205.17,344.86 		"/>
		<polyline class="st3" points="308.51,130.3 301.17,130.3 301.17,123.96 294.83,123.96 294.83,117.15 289.48,117.15 289.48,109.89 
			281.76,109.89 281.76,102.55 237.35,102.55 237.35,95.52 246.22,95.52 246.22,90.17 253.02,90.17 253.02,84.13 260.2,84.13 
			260.2,75.19 266.01,75.19 266.01,68.07 279.92,68.07 279.92,84.13 287.57,84.13 287.57,95.83 294.83,95.83 294.83,67.62 
			289.48,67.62 289.48,47.98 293.15,47.98 293.15,55.7 299.03,55.7 299.03,62.12 307.9,62.12 307.9,69.08 314.47,69.08 
			314.47,75.19 322.65,75.19 322.65,84.13 328.31,84.13 328.31,89.98 336.18,89.98 336.18,104.08 342.75,104.08 342.75,110.27 
			384.03,110.27 384.03,117.15 363.01,117.15 363.01,125.94 378.52,125.94 378.52,130.91 356.66,130.91 356.66,137.48 
			308.13,137.48 308.13,130.3 		"/>
		<polygon class="st3" points="251.58,173.67 251.58,183.5 91.03,183.5 91.03,178.68 86.69,178.68 86.69,173.67 91.8,173.67 
			91.8,177.72 246.85,177.72 246.85,175.07 242.07,175.07 242.07,169.07 232.66,169.07 232.66,159.82 220.36,159.82 220.36,152.12 
			200.5,152.12 200.5,148.56 185.04,148.56 185.04,153.36 179.83,153.36 179.83,148.16 184.33,148.16 184.33,138.35 179.11,138.35 
			179.11,133.82 172.03,133.82 172.03,129.36 162.82,129.36 162.82,133.53 141.77,133.53 141.77,137.87 137.15,137.87 
			137.15,143.22 127.45,143.22 127.45,155.38 113.12,155.38 113.12,159.72 108.42,159.72 108.42,160.61 108.4,160.61 108.4,164.11 
			78,164.11 78,168.74 73.66,168.74 73.66,178.2 66.04,178.2 66.04,173.67 69.03,173.67 69.03,164.11 74.05,164.11 74.05,159.77 
			105.7,159.77 105.7,155.33 110.52,155.33 110.52,150.9 123.26,150.9 123.26,138.01 133.95,138.01 133.95,137.06 133.96,137.06 
			133.96,133.53 137.53,133.53 137.53,129.29 159.72,129.29 159.72,124.44 176.12,124.44 176.12,129.34 183.32,129.34 
			183.32,133.82 188.29,133.82 188.29,143.73 203.23,143.73 203.23,148.5 224.84,148.5 224.84,154.8 238.35,154.8 238.35,163.73 
			246.87,163.73 246.87,173.67 		"/>
		<polygon class="st3" points="61.9,173.46 61.9,178.3 56.97,178.3 56.97,183.5 47.81,183.5 47.81,178.3 52.24,178.3 52.24,173.46 
					"/>
	</g>
	<g>
		<polygon class="st3" points="783.6,283.91 783.6,306.61 780.33,306.61 780.33,309.54 777.23,309.54 777.23,312.8 773.83,312.8 
			773.83,316.13 767.34,316.13 767.34,365.24 748.53,365.24 748.53,335.28 741.46,335.28 741.46,332.41 738.31,332.41 
			738.31,329.08 735.62,329.08 735.62,325.87 732.05,325.87 732.05,293.2 735.63,293.2 735.63,290.5 738.32,290.5 738.32,293.2 
			741.91,293.2 741.91,325.87 748.53,325.87 748.53,271.07 751.28,271.07 751.28,267.4 764.43,267.4 764.43,271.07 767.34,271.07 
			767.34,306.61 774.08,306.61 774.08,283.91 777.29,283.91 777.29,280.82 780.39,280.82 780.39,283.91 		"/>
		<rect x="446.32" y="22.89" class="st4" width="396" height="396"/>
		<polygon class="st3" points="519.08,258.54 519.08,307.3 516.08,307.3 516.08,310.36 512.97,310.36 512.97,313.84 509.64,313.84 
			509.64,317.24 503.24,317.24 503.24,346.06 483.37,346.06 483.37,317.24 476.97,317.24 476.97,313.84 474.14,313.84 
			474.14,310.36 470.93,310.36 470.93,307.3 467.81,307.3 467.81,262.36 470.87,262.36 470.87,259.15 474.08,259.15 474.08,262.36 
			477.14,262.36 477.14,307.3 483.37,307.3 483.37,252.12 487.04,252.12 487.04,249.24 499.57,249.24 499.57,252.12 503.24,252.12 
			503.24,307.3 509.75,307.3 509.75,258.54 512.97,258.54 512.97,255.63 515.87,255.63 515.87,258.54 		"/>
		<polyline class="st3" points="483.37,346.06 452.26,346.06 452.26,341.74 483.37,341.74 		"/>
		<path class="st3" d="M483.37,346.06"/>
		<polyline class="st3" points="503.25,346.06 583.89,346.06 583.89,341.74 503.25,341.74 		"/>
		<path class="st3" d="M503.25,346.06"/>
		<path class="st3" d="M503.25,341.74"/>
		<rect x="561.73" y="351.77" class="st3" width="15.75" height="4.32"/>
		<rect x="548.51" y="367.69" class="st3" width="6.42" height="4.32"/>
		<rect x="490.49" y="370.95" class="st3" width="13.2" height="4.32"/>
		<rect x="471.69" y="358.23" class="st3" width="9.06" height="4.32"/>
		<rect x="670.95" y="367.92" class="st3" width="6.19" height="4.32"/>
		<rect x="693.54" y="354.6" class="st3" width="6.19" height="4.32"/>
		<rect x="780.67" y="367.88" class="st3" width="15.71" height="4.32"/>
		<rect x="825.61" y="351.69" class="st3" width="6.42" height="4.32"/>
		<polyline class="st3" points="767.34,341.83 835.93,341.83 835.93,346.15 767.34,346.15 		"/>
		<polyline class="st3" points="748.51,346.15 648.6,346.15 648.6,341.83 748.51,341.83 		"/>
		<rect x="648.37" y="228.2" class="st3" width="6.46" height="6.46"/>
		<polyline class="st3" points="628.99,345.14 622.72,345.14 622.72,339.03 615.84,339.03 615.84,345.26 609.65,345.26 
			609.65,352.67 603.27,352.67 603.27,358.67 609.65,358.67 609.65,365.24 596.89,365.24 596.89,339.03 590.38,339.03 
			590.38,332.53 584.22,332.53 584.22,326.11 577.97,326.11 577.97,319.46 571.72,319.46 571.72,312.81 564.9,312.81 564.9,306.16 
			558.6,306.16 558.6,267.4 564.9,267.4 564.9,280.36 571.03,280.36 571.03,287.07 577.46,287.07 577.46,293.72 603.31,293.72 
			603.31,287.07 610.03,287.07 610.03,280.71 619.74,280.71 619.74,274.06 629.6,274.06 629.6,267.4 635.87,267.4 635.87,224.91 
			642.21,224.91 642.21,218.34 693.35,218.34 693.35,224.91 699.77,224.91 699.77,254.41 667.67,254.41 667.67,260.38 
			687.08,260.38 687.08,267.4 654.82,267.4 654.82,280.36 667.67,280.36 667.67,293.72 661.24,293.72 661.24,287.07 654.82,287.07 
			654.82,312.81 648.6,312.81 648.6,319.46 641.83,319.46 641.83,326.11 635.41,326.11 635.41,358.67 641.83,358.67 641.83,365.24 
			628.99,365.24 628.99,345.26 		"/>
		<polyline class="st3" points="732.33,130.69 724.99,130.69 724.99,124.35 718.65,124.35 718.65,117.55 713.3,117.55 713.3,110.29 
			705.58,110.29 705.58,102.95 661.17,102.95 661.17,95.92 670.03,95.92 670.03,90.57 676.84,90.57 676.84,84.53 684.02,84.53 
			684.02,75.59 689.83,75.59 689.83,68.47 703.74,68.47 703.74,84.53 711.38,84.53 711.38,96.22 718.65,96.22 718.65,68.02 
			713.3,68.02 713.3,48.38 716.96,48.38 716.96,56.1 722.85,56.1 722.85,62.52 731.72,62.52 731.72,69.47 738.29,69.47 
			738.29,75.59 746.47,75.59 746.47,84.53 752.12,84.53 752.12,90.38 760,90.38 760,104.48 766.57,104.48 766.57,110.67 
			807.84,110.67 807.84,117.55 786.82,117.55 786.82,126.34 802.34,126.34 802.34,131.31 780.48,131.31 780.48,137.88 
			731.95,137.88 731.95,130.69 		"/>
		<polygon class="st3" points="675.4,174.06 675.4,183.89 514.85,183.89 514.85,179.07 510.51,179.07 510.51,174.06 515.62,174.06 
			515.62,178.11 670.66,178.11 670.66,175.46 665.89,175.46 665.89,169.47 656.48,169.47 656.48,160.21 644.18,160.21 
			644.18,152.51 624.31,152.51 624.31,148.96 608.86,148.96 608.86,153.75 603.65,153.75 603.65,148.55 608.14,148.55 
			608.14,138.74 602.93,138.74 602.93,134.21 595.85,134.21 595.85,129.76 586.63,129.76 586.63,133.92 565.59,133.92 
			565.59,138.26 560.97,138.26 560.97,143.62 551.27,143.62 551.27,155.77 536.94,155.77 536.94,160.11 532.24,160.11 
			532.24,161.01 532.22,161.01 532.22,164.51 501.82,164.51 501.82,169.14 497.48,169.14 497.48,178.59 489.86,178.59 
			489.86,174.06 492.85,174.06 492.85,164.51 497.87,164.51 497.87,160.16 529.52,160.16 529.52,155.72 534.34,155.72 
			534.34,151.29 547.07,151.29 547.07,138.4 557.77,138.4 557.77,137.46 557.78,137.46 557.78,133.92 561.35,133.92 561.35,129.68 
			583.54,129.68 583.54,124.83 599.94,124.83 599.94,129.73 607.13,129.73 607.13,134.21 612.11,134.21 612.11,144.12 
			627.05,144.12 627.05,148.89 648.66,148.89 648.66,155.19 662.17,155.19 662.17,164.13 670.69,164.13 670.69,174.06 		"/>
		<polygon class="st3" points="485.72,173.86 485.72,178.69 480.79,178.69 480.79,183.89 471.63,183.89 471.63,178.69 
			476.06,178.69 476.06,173.86 		"/>
	</g>
	<g>
		<polygon class="st3" points="360.38,706.48 360.38,729.18 357.11,729.18 357.11,732.11 354.01,732.11 354.01,735.37 
			350.61,735.37 350.61,738.7 344.12,738.7 344.12,787.81 325.31,787.81 325.31,757.85 318.24,757.85 318.24,754.98 315.09,754.98 
			315.09,751.65 312.4,751.65 312.4,748.44 308.83,748.44 308.83,715.77 312.41,715.77 312.41,713.07 315.1,713.07 315.1,715.77 
			318.69,715.77 318.69,748.44 325.31,748.44 325.31,693.64 328.06,693.64 328.06,689.97 341.21,689.97 341.21,693.64 
			344.12,693.64 344.12,729.18 350.86,729.18 350.86,706.48 354.07,706.48 354.07,703.39 357.17,703.39 357.17,706.48 		"/>
		<rect x="23.1" y="445.46" class="st4" width="396" height="396"/>
		<polygon class="st3" points="95.86,681.11 95.86,729.87 92.86,729.87 92.86,732.93 89.75,732.93 89.75,736.41 86.42,736.41 
			86.42,739.81 80.02,739.81 80.02,768.63 60.15,768.63 60.15,739.81 53.75,739.81 53.75,736.41 50.92,736.41 50.92,732.93 
			47.71,732.93 47.71,729.87 44.59,729.87 44.59,684.93 47.65,684.93 47.65,681.72 50.86,681.72 50.86,684.93 53.92,684.93 
			53.92,729.87 60.15,729.87 60.15,674.69 63.82,674.69 63.82,671.81 76.35,671.81 76.35,674.69 80.02,674.69 80.02,729.87 
			86.53,729.87 86.53,681.11 89.75,681.11 89.75,678.2 92.65,678.2 92.65,681.11 		"/>
		<polyline class="st3" points="60.15,768.63 29.04,768.63 29.04,764.31 60.15,764.31 		"/>
		<path class="st3" d="M60.15,768.63"/>
		<polyline class="st3" points="80.03,768.63 160.68,768.63 160.68,764.31 80.03,764.31 		"/>
		<path class="st3" d="M80.03,768.63"/>
		<path class="st3" d="M80.03,764.31"/>
		<rect x="138.51" y="774.34" class="st3" width="15.75" height="4.32"/>
		<rect x="125.29" y="790.26" class="st3" width="6.42" height="4.32"/>
		<rect x="67.27" y="793.52" class="st3" width="13.2" height="4.32"/>
		<rect x="48.47" y="780.8" class="st3" width="9.06" height="4.32"/>
		<rect x="247.73" y="790.49" class="st3" width="6.19" height="4.32"/>
		<rect x="270.32" y="777.17" class="st3" width="6.19" height="4.32"/>
		<rect x="357.45" y="790.44" class="st3" width="15.71" height="4.32"/>
		<rect x="402.39" y="774.26" class="st3" width="6.42" height="4.32"/>
		<polyline class="st3" points="344.12,764.4 412.71,764.4 412.71,768.72 344.12,768.72 		"/>
		<polyline class="st3" points="325.29,768.72 225.38,768.72 225.38,764.4 325.29,764.4 		"/>
		<rect x="225.15" y="650.77" class="st3" width="6.46" height="6.46"/>
		<polyline class="st3" points="205.77,767.71 199.5,767.71 199.5,761.6 192.62,761.6 192.62,767.83 186.43,767.83 186.43,775.24 
			180.05,775.24 180.05,781.24 186.43,781.24 186.43,787.81 173.67,787.81 173.67,761.6 167.16,761.6 167.16,755.1 161,755.1 
			161,748.68 154.75,748.68 154.75,742.03 148.5,742.03 148.5,735.38 141.68,735.38 141.68,728.73 135.38,728.73 135.38,689.97 
			141.68,689.97 141.68,702.93 147.82,702.93 147.82,709.64 154.24,709.64 154.24,716.29 180.09,716.29 180.09,709.64 
			186.82,709.64 186.82,703.28 196.52,703.28 196.52,696.63 206.38,696.63 206.38,689.97 212.65,689.97 212.65,647.48 
			218.99,647.48 218.99,640.91 270.13,640.91 270.13,647.48 276.55,647.48 276.55,676.98 244.45,676.98 244.45,682.95 
			263.86,682.95 263.86,689.97 231.61,689.97 231.61,702.93 244.45,702.93 244.45,716.29 238.03,716.29 238.03,709.64 
			231.61,709.64 231.61,735.38 225.38,735.38 225.38,742.03 218.61,742.03 218.61,748.68 212.19,748.68 212.19,781.24 
			218.61,781.24 218.61,787.81 205.77,787.81 205.77,767.83 		"/>
		<polyline class="st3" points="309.11,553.26 301.77,553.26 301.77,546.92 295.43,546.92 295.43,540.12 290.08,540.12 
			290.08,532.86 282.36,532.86 282.36,525.52 237.95,525.52 237.95,518.49 246.82,518.49 246.82,513.14 253.62,513.14 253.62,507.1 
			260.8,507.1 260.8,498.16 266.61,498.16 266.61,491.04 280.52,491.04 280.52,507.1 288.17,507.1 288.17,518.79 295.43,518.79 
			295.43,490.59 290.08,490.59 290.08,470.95 293.75,470.95 293.75,478.67 299.63,478.67 299.63,485.09 308.5,485.09 308.5,492.04 
			315.07,492.04 315.07,498.16 323.25,498.16 323.25,507.1 328.9,507.1 328.9,512.95 336.78,512.95 336.78,527.05 343.35,527.05 
			343.35,533.24 384.62,533.24 384.62,540.12 363.61,540.12 363.61,548.91 379.12,548.91 379.12,553.88 357.26,553.88 
			357.26,560.45 308.73,560.45 308.73,553.26 		"/>
		<polygon class="st3" points="252.18,596.63 252.18,606.46 91.63,606.46 91.63,601.64 87.29,601.64 87.29,596.63 92.4,596.63 
			92.4,600.68 247.44,600.68 247.44,598.03 242.67,598.03 242.67,592.04 233.26,592.04 233.26,582.78 220.96,582.78 220.96,575.08 
			201.09,575.08 201.09,571.52 185.64,571.52 185.64,576.32 180.43,576.32 180.43,571.12 184.92,571.12 184.92,561.31 
			179.71,561.31 179.71,556.78 172.63,556.78 172.63,552.33 163.41,552.33 163.41,556.49 142.37,556.49 142.37,560.83 
			137.75,560.83 137.75,566.19 128.05,566.19 128.05,578.34 113.72,578.34 113.72,582.68 109.02,582.68 109.02,583.58 109,583.58 
			109,587.08 78.6,587.08 78.6,591.71 74.26,591.71 74.26,601.16 66.64,601.16 66.64,596.63 69.63,596.63 69.63,587.08 
			74.65,587.08 74.65,582.73 106.3,582.73 106.3,578.29 111.12,578.29 111.12,573.86 123.86,573.86 123.86,560.97 134.55,560.97 
			134.55,560.03 134.56,560.03 134.56,556.49 138.13,556.49 138.13,552.25 160.32,552.25 160.32,547.4 176.72,547.4 176.72,552.3 
			183.91,552.3 183.91,556.78 188.89,556.78 188.89,566.69 203.83,566.69 203.83,571.46 225.44,571.46 225.44,577.76 238.95,577.76 
			238.95,586.7 247.47,586.7 247.47,596.63 		"/>
		<polygon class="st3" points="62.5,596.43 62.5,601.26 57.57,601.26 57.57,606.46 48.41,606.46 48.41,601.26 52.84,601.26 
			52.84,596.43 		"/>
	</g>
	<g>
		<polygon class="st3" points="784.2,706.88 784.2,729.58 780.93,729.58 780.93,732.51 777.83,732.51 777.83,735.77 774.43,735.77 
			774.43,739.1 767.94,739.1 767.94,788.21 749.13,788.21 749.13,758.25 742.06,758.25 742.06,755.38 738.91,755.38 738.91,752.05 
			736.22,752.05 736.22,748.84 732.65,748.84 732.65,716.17 736.23,716.17 736.23,713.47 738.92,713.47 738.92,716.17 
			742.51,716.17 742.51,748.84 749.13,748.84 749.13,694.04 751.88,694.04 751.88,690.37 765.03,690.37 765.03,694.04 
			767.94,694.04 767.94,729.58 774.68,729.58 774.68,706.88 777.89,706.88 777.89,703.79 780.99,703.79 780.99,706.88 		"/>
		<rect x="446.92" y="445.86" class="st4" width="396" height="396"/>
		<polygon class="st3" points="519.68,681.51 519.68,730.27 516.68,730.27 516.68,733.33 513.57,733.33 513.57,736.81 
			510.24,736.81 510.24,740.21 503.84,740.21 503.84,769.03 483.97,769.03 483.97,740.21 477.57,740.21 477.57,736.81 
			474.74,736.81 474.74,733.33 471.53,733.33 471.53,730.27 468.41,730.27 468.41,685.33 471.47,685.33 471.47,682.12 
			474.68,682.12 474.68,685.33 477.74,685.33 477.74,730.27 483.97,730.27 483.97,675.09 487.64,675.09 487.64,672.21 
			500.17,672.21 500.17,675.09 503.84,675.09 503.84,730.27 510.35,730.27 510.35,681.51 513.57,681.51 513.57,678.6 516.47,678.6 
			516.47,681.51 		"/>
		<polyline class="st3" points="483.97,769.03 452.86,769.03 452.86,764.71 483.97,764.71 		"/>
		<path class="st3" d="M483.97,769.03"/>
		<polyline class="st3" points="503.85,769.03 584.49,769.03 584.49,764.71 503.85,764.71 		"/>
		<path class="st3" d="M503.85,769.03"/>
		<path class="st3" d="M503.85,764.71"/>
		<rect x="562.33" y="774.73" class="st3" width="15.75" height="4.32"/>
		<rect x="549.1" y="790.65" class="st3" width="6.42" height="4.32"/>
		<rect x="491.09" y="793.92" class="st3" width="13.2" height="4.32"/>
		<rect x="472.29" y="781.19" class="st3" width="9.06" height="4.32"/>
		<rect x="671.55" y="790.88" class="st3" width="6.19" height="4.32"/>
		<rect x="694.14" y="777.56" class="st3" width="6.19" height="4.32"/>
		<rect x="781.27" y="790.84" class="st3" width="15.71" height="4.32"/>
		<rect x="826.21" y="774.66" class="st3" width="6.42" height="4.32"/>
		<polyline class="st3" points="767.94,764.8 836.53,764.8 836.53,769.12 767.94,769.12 		"/>
		<polyline class="st3" points="749.11,769.12 649.19,769.12 649.19,764.8 749.11,764.8 		"/>
		<rect x="648.96" y="651.16" class="st3" width="6.46" height="6.46"/>
		<polyline class="st3" points="629.59,768.11 623.32,768.11 623.32,761.99 616.44,761.99 616.44,768.22 610.25,768.22 
			610.25,775.63 603.87,775.63 603.87,781.63 610.25,781.63 610.25,788.21 597.49,788.21 597.49,761.99 590.98,761.99 
			590.98,755.49 584.82,755.49 584.82,749.07 578.57,749.07 578.57,742.42 572.32,742.42 572.32,735.77 565.5,735.77 565.5,729.12 
			559.19,729.12 559.19,690.37 565.5,690.37 565.5,703.33 571.63,703.33 571.63,710.03 578.05,710.03 578.05,716.68 603.91,716.68 
			603.91,710.03 610.63,710.03 610.63,703.67 620.34,703.67 620.34,697.02 630.2,697.02 630.2,690.37 636.47,690.37 636.47,647.88 
			642.81,647.88 642.81,641.3 693.95,641.3 693.95,647.88 700.37,647.88 700.37,677.38 668.26,677.38 668.26,683.34 687.68,683.34 
			687.68,690.37 655.42,690.37 655.42,703.33 668.26,703.33 668.26,716.68 661.84,716.68 661.84,710.03 655.42,710.03 
			655.42,735.77 649.19,735.77 649.19,742.42 642.43,742.42 642.43,749.07 636.01,749.07 636.01,781.63 642.43,781.63 
			642.43,788.21 629.59,788.21 629.59,768.22 		"/>
		<polyline class="st3" points="732.93,553.66 725.59,553.66 725.59,547.31 719.24,547.31 719.24,540.51 713.89,540.51 
			713.89,533.25 706.17,533.25 706.17,525.91 661.77,525.91 661.77,518.88 670.63,518.88 670.63,513.53 677.44,513.53 
			677.44,507.49 684.62,507.49 684.62,498.55 690.43,498.55 690.43,491.43 704.34,491.43 704.34,507.49 711.98,507.49 
			711.98,519.19 719.24,519.19 719.24,490.98 713.89,490.98 713.89,471.34 717.56,471.34 717.56,479.06 723.45,479.06 
			723.45,485.48 732.31,485.48 732.31,492.44 738.89,492.44 738.89,498.55 747.07,498.55 747.07,507.49 752.72,507.49 
			752.72,513.34 760.6,513.34 760.6,527.44 767.17,527.44 767.17,533.63 808.44,533.63 808.44,540.51 787.42,540.51 787.42,549.3 
			802.94,549.3 802.94,554.27 781.08,554.27 781.08,560.84 732.54,560.84 732.54,553.66 		"/>
		<polygon class="st3" points="676,597.03 676,606.86 515.45,606.86 515.45,602.04 511.1,602.04 511.1,597.03 516.22,597.03 
			516.22,601.08 671.26,601.08 671.26,598.43 666.49,598.43 666.49,592.43 657.07,592.43 657.07,583.18 644.78,583.18 
			644.78,575.48 624.91,575.48 624.91,571.92 609.46,571.92 609.46,576.72 604.25,576.72 604.25,571.52 608.74,571.52 
			608.74,561.71 603.53,561.71 603.53,557.18 596.45,557.18 596.45,552.72 587.23,552.72 587.23,556.89 566.19,556.89 
			566.19,561.23 561.57,561.23 561.57,566.58 551.86,566.58 551.86,578.74 537.54,578.74 537.54,583.08 532.84,583.08 
			532.84,583.97 532.82,583.97 532.82,587.47 502.42,587.47 502.42,592.1 498.08,592.1 498.08,601.56 490.45,601.56 490.45,597.03 
			493.45,597.03 493.45,587.47 498.47,587.47 498.47,583.13 530.11,583.13 530.11,578.69 534.94,578.69 534.94,574.25 
			547.67,574.25 547.67,561.37 558.36,561.37 558.36,560.42 558.38,560.42 558.38,556.89 561.95,556.89 561.95,552.64 
			584.14,552.64 584.14,547.8 600.54,547.8 600.54,552.7 607.73,552.7 607.73,557.18 612.71,557.18 612.71,567.09 627.65,567.09 
			627.65,571.86 649.26,571.86 649.26,578.16 662.77,578.16 662.77,587.09 671.29,587.09 671.29,597.03 		"/>
		<polygon class="st3" points="486.31,596.82 486.31,601.66 481.39,601.66 481.39,606.86 472.23,606.86 472.23,601.66 
			476.66,601.66 476.66,596.82 		"/>
	</g>
</g>
</svg>
